<svg width="203" height="38" viewBox="0 0 203 38" fill="none" xmlns="http://www.w3.org/2000/svg">
<path d="M7.392 20.112C7.424 20.208 7.424 20.32 7.424 20.432C7.424 20.912 7.216 21.52 6.992 21.52C6.896 21.52 6.784 21.408 6.704 21.136V21.152C6.592 21.152 6.288 19.728 5.52 19.728C4.848 19.728 4.288 20.512 3.904 21.024C2.928 22.32 2.16 23.856 1.616 25.392C1.456 25.856 1.136 26.608 1.136 27.264C1.136 28.4 2.208 28.736 3.088 28.736C4.736 28.736 6.384 27.936 7.696 26.992C7.744 26.96 7.792 26.944 7.824 26.944C7.92 26.944 7.968 27.056 7.968 27.2C7.968 27.504 7.808 28.016 7.52 28.224C6.176 29.184 4.544 30.608 2.864 30.608C0.912 30.608 0.32 28.96 0.32 27.424C0.32 26.48 0.528 25.504 0.768 24.784C1.376 22.912 2.24 20.928 3.488 19.36C3.936 18.848 4.624 18.016 5.424 18.016C6.512 18.016 7.136 19.232 7.392 20.112ZM9.25125 30.736C9.44325 30.432 9.61925 30.08 9.84325 29.792C11.1713 28.144 12.4193 26.432 13.3313 24.496C14.0193 22.992 14.7073 21.504 15.4113 20.032C15.5873 19.584 16.0193 19.152 16.3073 19.152C17.1873 19.152 17.1713 23.408 17.2833 25.056C17.3633 26.272 17.5553 27.488 17.5553 28.72C17.5553 28.992 17.5393 29.344 17.1553 29.344C16.7393 29.344 16.3713 29.344 16.3233 28.8C16.1793 27.072 15.9713 25.376 15.7633 23.68C15.7153 23.296 15.7313 22.896 15.6833 22.528C15.6673 22.352 15.5873 22.192 15.5553 22.048C15.4433 22.128 15.2513 22.224 15.1713 22.352C14.6913 23.296 14.2433 24.256 13.7793 25.216C12.7553 27.296 11.4113 29.168 9.61925 30.688C9.53925 30.736 9.47525 30.784 9.37925 30.816C9.34725 30.816 9.31525 30.784 9.25125 30.736ZM29.8873 20.128C30.3993 20.896 30.5273 21.776 30.5273 22.32C30.5273 25.968 29.4713 28.512 27.2153 30.64C26.7673 31.056 26.2713 31.28 25.7273 31.28C24.2393 31.28 23.6633 30.176 23.6633 29.104C23.6633 28.768 23.6633 28.4 23.7113 28.064C23.8073 27.408 24.0793 26.72 24.0793 26.096C24.0793 25.872 23.9673 25.632 23.8553 25.536C23.3113 25.12 23.0233 24.672 22.9273 24.192C22.0312 24.384 20.8793 24.272 20.6393 25.216C20.3832 26.544 19.9033 29.408 19.4073 29.408C19.1993 29.344 19.1353 29.216 19.1353 29.072C19.1353 28.928 19.1833 28.768 19.2153 28.656C19.3753 27.568 19.5833 26.496 19.7273 25.44C19.7433 25.312 19.7593 25.216 19.7593 25.12C19.7593 24.864 19.6153 24.784 19.1993 24.784C19.0872 24.784 18.9593 24.816 18.8313 24.816C18.6553 24.816 18.5113 24.752 18.5113 24.448C18.5113 24.112 18.9113 24.16 19.1673 24.112C19.9673 24.048 20.0312 23.968 20.1913 23.2C20.3513 22.176 20.4313 19.344 21.3273 19.344C21.5033 19.344 21.6633 19.68 21.6633 19.792C21.6633 21.088 21.0393 22.304 21.0393 23.376C21.0393 23.616 21.1513 23.728 21.4233 23.728C21.8713 23.728 22.4313 23.616 22.9273 23.52C22.9113 23.232 23.0393 22.928 23.1513 22.592C23.6953 20.992 24.7833 19.904 26.3673 19.376C27.0553 19.152 27.8073 19.152 28.5273 19.152C29.1673 19.152 29.5673 19.616 29.8873 20.128ZM27.7753 28.352C28.8633 26.704 29.4553 24.912 29.4553 23.024C29.4553 21.456 29.3113 20.016 27.7753 20.016C25.8873 20.096 24.1273 21.536 23.8553 23.648V23.728C23.8553 24.128 23.9673 24.736 24.3993 24.736C24.8633 24.736 24.7033 23.472 25.7593 23.472C25.9833 23.472 26.0633 23.664 26.0633 24.112C26.0633 24.48 25.7593 24.88 25.7593 25.152C25.7593 25.584 26.0633 25.232 26.5113 25.68C26.3993 25.744 26.3033 25.856 26.2073 25.856C25.5513 25.856 25.2793 26.224 25.1833 26.752C25.0233 27.632 25.0073 28.528 24.9433 29.408C24.9433 29.824 25.1673 30.064 25.5513 30.064C25.8553 30.064 26.2552 30.016 26.4633 29.84C26.9593 29.408 27.4233 28.896 27.7753 28.352ZM38.728 19.52C38.792 19.504 38.84 19.504 38.904 19.504C39.032 19.504 39.16 19.52 39.272 19.52C39.192 19.712 39.128 19.968 38.968 20.032C38.168 20.32 37.608 20.56 36.68 20.56C35.864 20.56 35.032 20.384 34.2 20.384C33.912 20.384 33.768 20.48 33.768 20.752C33.768 20.848 33.784 20.944 33.816 21.072L33.672 20.992C33.464 21.936 33.24 22.864 33.064 23.808C33.752 23.488 34.488 23.264 35.208 23.04C35.784 22.864 36.616 22.56 37.384 22.56C38.216 22.56 38.792 22.976 38.792 23.712C38.792 24.576 38.088 25.648 37.8 26.144C37.08 27.392 35.96 29.632 34.312 29.632C34.024 29.632 33.416 29.648 33.416 29.072C33.416 28.832 33.496 28.576 33.64 28.576C33.864 28.576 34.088 28.704 34.312 28.704C35.992 28.704 37.144 26.096 37.832 24.912C37.96 24.704 38.312 24.24 38.312 23.92C38.312 23.584 37.784 23.536 37.48 23.536C35.992 23.536 34.264 24.24 32.872 24.864C32.616 26.016 32.296 27.312 32.296 28.512C32.296 28.816 32.36 29.104 32.36 29.392C32.36 29.872 32.088 30.336 31.864 30.336C31.576 30.336 31.48 29.504 31.48 28.672C31.48 27.088 31.864 25.456 32.12 23.952L32.792 20.576C32.792 20.32 32.344 19.728 32.184 19.456C32.36 19.392 32.616 19.248 32.744 19.248C32.84 19.248 33.112 19.344 33.24 19.392C33.272 19.376 33.32 19.36 33.352 19.36C33.416 19.36 33.48 19.392 33.544 19.456C34.504 19.696 35.464 19.84 36.424 19.84C37.192 19.84 37.96 19.744 38.728 19.52ZM47.8096 23.008C47.7616 24.88 46.8016 27.2 44.7696 29.28C44.1936 29.872 43.1696 30.608 42.1616 30.608C40.3056 30.608 39.5856 29.056 39.5856 28C39.5856 27.36 39.8416 26.736 39.9536 26.096C40.0656 25.44 40.0336 24.736 40.2416 24.112C40.5456 23.184 40.9296 22.24 41.4736 21.376C41.9056 20.672 42.6256 20.048 43.2496 19.408C43.7936 18.864 44.7376 18.528 45.3776 18.528C46.9136 18.528 47.8096 19.968 47.8096 23.008ZM46.5776 22C46.4016 21.312 46.2736 19.472 45.3776 19.472C43.8576 19.472 42.6416 21.664 41.9376 22.736C41.9056 22.784 41.9056 22.832 41.9056 22.896C41.9056 23.408 42.6416 23.568 42.6416 24C42.6416 24.144 42.5616 24.32 42.5616 24.464C42.5616 24.736 42.8176 24.896 43.2656 24.896C43.6976 24.896 44.0496 24.704 44.4816 24.704C44.6416 24.704 44.8176 24.736 44.9776 24.736C44.8816 24.88 44.8016 25.056 44.6416 25.12C44.0496 25.296 43.4416 25.472 42.8016 25.568C42.3376 25.632 41.9856 25.712 41.9056 26.08C41.7616 26.768 41.5056 27.6 41.5056 28.336C41.5056 28.944 41.7456 29.408 42.2416 29.408C42.4176 29.408 42.6416 29.36 42.8656 29.216C45.4576 27.504 46.2576 24.624 46.5776 22ZM50.445 31.28C50.285 30.992 50.237 30.768 50.237 30.56C50.237 30.192 50.541 29.728 50.781 29.728C50.973 29.728 51.037 30.496 51.517 30.496C51.757 30.496 51.965 30.208 52.125 30.032C52.989 29.04 53.789 27.968 54.157 26.656C54.189 26.512 54.221 26.384 54.221 26.256C54.221 25.808 53.869 25.264 53.373 25.264C52.733 25.264 51.757 25.696 51.293 26.384C51.261 26.432 51.213 26.496 51.165 26.512C50.253 27.104 49.997 28.048 49.821 29.024C49.821 29.456 49.485 29.648 49.213 29.92C49.069 29.712 48.781 29.488 48.765 29.264C48.717 28.88 48.685 28.48 48.685 28.096C48.685 27.84 48.701 27.584 48.733 27.328C48.989 25.552 49.309 23.808 49.645 22.032C49.773 21.328 49.965 20.896 50.429 20.896C51.053 20.896 51.165 21.088 51.165 21.456V21.584C51.021 22.72 50.797 23.856 50.573 24.944C50.573 25.136 50.605 25.328 50.781 25.328C51.069 25.344 51.549 24.88 51.757 24.512C52.541 23.152 53.389 21.824 54.157 20.464C54.285 20.224 54.349 19.824 54.349 19.584C54.349 18.912 53.933 18.496 53.277 18.496C53.117 18.496 52.957 18.512 52.781 18.56C51.469 18.896 50.333 19.552 49.341 20.48C48.973 20.72 48.957 20.752 48.637 20.784C48.637 20.672 48.605 20.528 48.605 20.416C48.605 20.352 48.621 20.304 48.637 20.272C49.501 19.168 51.597 17.872 53.405 17.872C54.349 17.872 54.941 18.416 55.037 19.424V19.792C55.037 20.672 54.685 21.36 54.253 22.112C53.885 22.736 52.957 23.888 52.957 24.256C52.957 24.4 53.101 24.496 53.373 24.512C54.413 24.608 55.197 25.504 55.197 26.528C55.197 26.768 55.165 27.008 55.069 27.232C54.365 28.992 52.685 31.648 51.213 31.648C50.941 31.648 50.685 31.52 50.445 31.28ZM57.8676 26.24C58.7476 25.52 59.7076 23.888 60.8116 23.888C61.6596 23.888 62.2516 24.752 62.2516 26.256C62.2516 28.256 61.4836 30.528 59.9796 31.936C59.5956 32.304 58.8436 32.656 58.3956 32.656C57.8516 32.656 56.7956 31.904 56.7956 30.736C56.7956 30.288 57.0196 29.632 57.3716 29.632C57.4516 29.632 57.5476 29.824 57.5476 29.92C57.5476 30.192 57.4996 30.464 57.4996 30.72C57.4996 31.488 57.8996 31.92 58.4756 31.92C59.7876 31.92 60.5076 30.304 60.9236 29.376C61.3716 28.336 61.6276 27.264 61.6276 26.16C61.6276 25.232 61.3076 24.48 60.7316 24.48C60.2196 24.48 59.1316 25.792 58.5076 26.448C57.9956 26.992 57.2116 28.048 56.7636 28.048C56.3956 28.048 55.9956 27.84 55.9956 27.52C55.9956 27.376 56.0436 27.2 56.0916 27.024C56.4276 25.76 56.8116 24.464 57.1316 23.2C57.2916 22.448 57.3556 21.648 57.4836 20.896C57.5156 20.672 57.3716 17.728 58.3956 17.728C58.7316 17.728 58.9716 18.32 58.9716 18.704C58.9716 18.752 58.9556 18.784 58.9556 18.832C58.8116 20.368 58.6196 21.872 58.3956 23.408C58.2676 24.32 57.8356 25.264 57.7396 26.176C57.7556 26.208 57.8036 26.24 57.8676 26.24ZM74.5904 20.128C75.1024 20.896 75.2304 21.776 75.2304 22.32C75.2304 25.968 74.1744 28.512 71.9184 30.64C71.4704 31.056 70.9744 31.28 70.4304 31.28C68.9424 31.28 68.3664 30.176 68.3664 29.104C68.3664 28.768 68.3664 28.4 68.4144 28.064C68.5104 27.408 68.7824 26.72 68.7824 26.096C68.7824 25.872 68.6704 25.632 68.5584 25.536C68.0144 25.12 67.7264 24.672 67.6304 24.192C66.7344 24.384 65.5824 24.272 65.3424 25.216C65.0864 26.544 64.6064 29.408 64.1104 29.408C63.9024 29.344 63.8384 29.216 63.8384 29.072C63.8384 28.928 63.8864 28.768 63.9184 28.656C64.0784 27.568 64.2864 26.496 64.4304 25.44C64.4464 25.312 64.4624 25.216 64.4624 25.12C64.4624 24.864 64.3184 24.784 63.9024 24.784C63.7904 24.784 63.6624 24.816 63.5344 24.816C63.3584 24.816 63.2144 24.752 63.2144 24.448C63.2144 24.112 63.6144 24.16 63.8704 24.112C64.6704 24.048 64.7344 23.968 64.8944 23.2C65.0544 22.176 65.1344 19.344 66.0304 19.344C66.2064 19.344 66.3664 19.68 66.3664 19.792C66.3664 21.088 65.7424 22.304 65.7424 23.376C65.7424 23.616 65.8544 23.728 66.1264 23.728C66.5744 23.728 67.1344 23.616 67.6304 23.52C67.6144 23.232 67.7424 22.928 67.8544 22.592C68.3984 20.992 69.4864 19.904 71.0704 19.376C71.7584 19.152 72.5104 19.152 73.2304 19.152C73.8704 19.152 74.2704 19.616 74.5904 20.128ZM72.4784 28.352C73.5664 26.704 74.1584 24.912 74.1584 23.024C74.1584 21.456 74.0144 20.016 72.4784 20.016C70.5904 20.096 68.8304 21.536 68.5584 23.648V23.728C68.5584 24.128 68.6704 24.736 69.1024 24.736C69.5664 24.736 69.4064 23.472 70.4624 23.472C70.6864 23.472 70.7664 23.664 70.7664 24.112C70.7664 24.48 70.4624 24.88 70.4624 25.152C70.4624 25.584 70.7664 25.232 71.2144 25.68C71.1024 25.744 71.0064 25.856 70.9104 25.856C70.2544 25.856 69.9824 26.224 69.8864 26.752C69.7264 27.632 69.7104 28.528 69.6464 29.408C69.6464 29.824 69.8704 30.064 70.2544 30.064C70.5584 30.064 70.9584 30.016 71.1664 29.84C71.6624 29.408 72.1264 28.896 72.4784 28.352ZM75.8631 31.44C76.1511 30.736 76.3911 30.032 76.6791 29.392C76.7751 29.248 77.1431 29.216 77.3671 29.152C77.3831 29.328 77.4791 29.536 77.4791 29.712C77.4791 29.744 77.4791 29.792 77.4631 29.824C77.2071 30.56 76.7911 31.84 76.2311 31.84C76.1351 31.808 76.0231 31.6 75.8631 31.44ZM85.7156 29.472C85.9236 28.208 86.1636 26.912 86.3876 25.632C86.4356 25.376 86.4836 25.072 86.4996 24.8C86.4996 24.704 86.4356 24.592 86.3876 24.48C86.2916 24.56 86.1796 24.592 86.1316 24.704C85.5876 25.92 85.1716 27.232 84.6276 28.512C84.5476 28.688 84.3556 28.816 84.2116 28.976C84.0836 28.784 83.8756 28.624 83.8436 28.416C83.6036 27.008 83.4436 25.552 83.2196 24.128C83.1716 23.824 83.0436 23.536 82.9796 23.2C82.8836 23.472 82.7396 23.76 82.7076 24.064L82.1956 28.416C82.1636 28.848 82.0036 29.44 81.6516 29.44C81.2196 29.44 80.9956 28.288 80.9956 27.712C80.9956 27.648 80.9956 27.568 81.0116 27.504C81.2356 25.12 81.6996 22.8 81.9716 20.464C82.0196 20.016 82.1636 19.664 82.6436 19.664C83.8596 19.664 83.6356 21.504 83.7316 22.624C83.8436 23.872 83.9396 25.12 84.0836 26.368C84.0996 26.544 84.2436 26.704 84.3396 26.896C84.4516 26.752 84.6276 26.64 84.7236 26.448C85.8436 24.064 87.0116 21.6 88.0516 19.168C88.1796 18.88 88.3876 18.8 88.5956 18.8C89.0916 18.8 89.3156 19.008 89.3156 19.296C89.3156 19.712 89.0436 20.24 88.9476 20.704C88.3556 23.312 87.7636 25.936 87.2196 28.56C87.0276 29.296 87.0276 30.864 86.2436 30.864C86.0196 30.864 85.8116 30.352 85.8116 30.032C85.8116 29.856 85.8276 29.664 85.8276 29.488C85.7796 29.488 85.7476 29.472 85.7156 29.472ZM91.192 29.92C92.056 29.6 92.952 29.28 93.816 28.896C95.288 28.24 96.744 27.504 98.184 26.816C98.472 26.688 98.792 26.752 99.064 26.688C98.92 26.896 98.776 27.168 98.552 27.328C96.712 28.608 94.888 29.952 92.68 30.656C92.104 30.848 91.496 31.008 90.888 31.008C89.416 31.008 88.52 30.144 88.52 29.184C88.52 28.88 88.6 28.56 88.76 28.224C89.48 26.688 90.44 25.344 91.544 24.064C91.96 23.584 92.696 23.168 92.696 22.816C92.696 22.704 92.632 22.56 92.504 22.432C92.136 22.064 91.976 21.568 91.976 21.024C91.976 19.776 92.968 18.08 94.344 18.08C95.176 18.08 95.736 18.928 95.736 19.632C95.736 20.112 95.512 20.192 95.288 20.432C95.192 20.256 95.08 20.032 95.08 19.824C95.08 19.76 95.096 19.68 95.096 19.616C95.096 19.136 94.632 18.896 94.392 18.896C93.368 18.896 92.872 20.304 92.872 21.104C92.872 22.272 93.944 22.08 94.728 22.256C94.904 22.304 95.08 22.4 95.24 22.432C95.144 22.624 95.128 22.88 94.984 22.976C94.712 23.168 94.392 23.296 94.088 23.456C92.968 24.032 92.184 24.96 91.496 26C90.92 26.88 89.912 28.464 89.912 29.136C89.912 29.552 90.28 29.808 91.016 29.808C91.064 29.808 91.096 29.792 91.128 29.792L91.192 29.92ZM105.773 31.84C105.917 31.168 106.029 29.936 106.429 29.616C106.493 29.696 106.589 29.776 106.605 29.872C106.733 30.768 106.861 31.648 106.861 32.576C106.861 32.896 106.829 33.216 106.797 33.52C106.733 33.952 106.237 34.528 105.885 34.528C105.581 34.528 105.165 34.32 105.021 34.096C104.317 33.104 103.629 32.112 103.101 31.024C102.445 29.696 101.933 28.304 101.325 26.928C101.277 26.8 101.133 26.72 101.005 26.592C100.925 26.72 100.765 26.864 100.733 26.992C100.621 27.744 100.525 28.512 100.429 29.264C100.381 29.68 100.269 30.128 99.8214 30.208C99.7414 30.208 99.4054 29.696 99.3574 29.328C99.3254 29.024 99.3094 28.704 99.3094 28.384C99.3094 27.952 99.3894 27.488 99.3894 27.056C99.3894 26.528 99.1014 26.512 98.5894 25.92C98.7334 25.904 98.8774 25.808 99.0374 25.808H99.2134C99.4694 25.808 99.6294 25.712 99.6774 25.424C99.8854 24.208 100.109 22.992 100.333 21.776V21.616C100.445 20.96 100.733 20.576 101.181 20.576C101.581 20.576 101.805 20.816 101.805 21.312C101.805 21.456 101.789 21.616 101.757 21.808C101.581 22.784 101.373 23.76 101.181 24.752C101.165 24.784 101.165 24.8 101.165 24.832C101.165 24.96 101.213 25.12 101.245 25.232C101.421 25.184 101.629 25.168 101.741 25.088C103.053 24.032 104.701 22.24 104.701 20.64C104.701 19.472 104.141 18.848 103.149 18.848C102.173 18.848 101.293 19.12 100.493 19.648C100.333 19.744 100.109 19.696 99.9174 19.728C100.013 19.536 100.029 19.264 100.173 19.184C101.037 18.544 101.981 18.208 102.973 18.208C103.293 18.208 103.613 18.24 103.933 18.304C104.813 18.464 105.485 19.616 105.485 20.688C105.485 21.856 104.685 23.056 103.981 23.936C103.453 24.592 102.237 25.552 102.237 26.048C102.237 26.256 102.349 26.48 102.541 26.8C102.845 27.312 103.053 27.904 103.309 28.464C103.933 29.872 104.493 31.184 105.229 32.448C105.293 32.592 105.533 32.672 105.693 32.768C105.773 32.592 105.901 32.288 105.901 32.08C105.901 32 105.869 31.92 105.853 31.84H105.773ZM113.455 20.192C113.487 20.288 113.487 20.4 113.487 20.512C113.487 20.992 113.279 21.6 113.055 21.6C112.959 21.6 112.847 21.488 112.767 21.216V21.232C112.671 21.232 112.303 19.808 111.599 19.808C110.911 19.808 110.367 20.592 109.967 21.12C108.975 22.416 108.223 23.936 107.679 25.472C107.519 25.936 107.199 26.704 107.199 27.376C107.199 28.496 108.287 28.816 109.151 28.816C110.799 28.816 112.447 28.016 113.759 27.072C113.807 27.04 113.855 27.024 113.887 27.024C113.983 27.024 114.031 27.136 114.031 27.28C114.031 27.584 113.855 28.096 113.567 28.304C112.239 29.264 110.607 30.704 108.943 30.704C106.975 30.704 106.383 29.04 106.383 27.504C106.383 26.56 106.59 25.584 106.831 24.864C107.439 22.992 108.287 21.008 109.551 19.456C109.983 18.928 110.687 18.096 111.487 18.096C112.575 18.096 113.199 19.312 113.455 20.192ZM118.991 28.528C119.167 27.312 119.375 26.016 119.583 24.72C119.599 24.576 119.615 24.464 119.615 24.368C119.615 24.144 119.535 24.064 119.311 24.064C119.215 24.064 119.103 24.08 118.959 24.096C118.015 24.304 116.671 24.16 116.463 25.152C116.159 26.592 115.631 29.6 115.151 29.6C114.927 29.6 114.879 29.392 114.879 29.264C114.879 29.104 114.927 28.944 114.943 28.8C115.103 27.648 115.311 26.528 115.519 25.408C115.535 25.296 115.535 25.2 115.535 25.12C115.535 24.8 115.391 24.72 114.911 24.72C114.799 24.72 114.671 24.752 114.543 24.752C114.383 24.752 114.191 24.704 114.191 24.448C114.191 24 114.575 24.064 114.895 24.032C115.727 23.936 115.807 23.872 115.951 23.056C116.159 21.872 116.287 18.976 117.135 18.976C117.327 18.976 117.535 19.328 117.535 19.472C117.503 20.736 116.879 21.968 116.879 23.248C116.879 23.488 116.991 23.6 117.263 23.6C117.903 23.6 119.871 23.44 119.919 22.864C120.223 21.456 120.479 20.048 120.735 18.672C120.799 18.304 120.767 17.936 121.471 17.936C121.823 17.936 122.015 18.112 122.015 18.512C122.015 18.592 122.015 18.672 121.999 18.752C121.871 19.968 121.615 21.2 121.391 22.432C121.375 22.464 121.343 22.496 121.343 22.528C121.343 22.672 121.407 22.832 121.407 22.976C121.407 23.76 120.863 24.432 120.799 25.232C120.719 26.16 120.479 27.072 120.319 28C120.175 28.752 120.095 29.488 119.919 30.24C119.903 30.368 119.743 30.48 119.647 30.624C119.503 30.512 119.295 30.416 119.247 30.272C119.135 29.728 119.071 29.184 118.991 28.528ZM128.22 22.368C129.148 22.48 129.548 23.152 129.548 24.016C129.564 25.616 128.412 27.104 127.34 28.192C126.476 29.056 125.148 30.48 123.852 30.48C123.212 30.48 123.02 29.888 123.02 29.264C123.02 28.512 123.244 27.808 123.404 27.808C123.58 27.808 123.74 28.304 123.74 28.656C123.74 28.784 123.708 28.912 123.708 29.008C123.772 29.008 123.884 29.024 123.98 29.024C124.252 29.024 124.588 28.816 124.876 28.672C126.252 27.824 127.596 26.608 128.396 25.248C128.62 24.928 128.956 24.272 128.956 24.064C128.956 23.936 128.204 23.76 127.852 23.76C127.148 23.76 126.348 23.968 125.788 24.096C125.244 24.224 124.38 24.592 123.66 24.592C122.956 24.592 122.652 24.224 122.652 23.76C122.652 23.184 123.068 22.464 123.356 22.128C124.604 20.72 126.172 19.2 127.804 18.208C127.996 18.096 128.156 18.048 128.3 18.048C128.652 18.048 128.812 18.384 128.812 18.832C128.812 18.976 128.796 19.136 128.764 19.296C128.684 19.664 128.22 20.624 128.06 20.624C127.868 20.624 127.772 20.112 127.772 19.712C127.196 20.08 126.684 20.56 126.172 20.992C125.388 21.68 124.604 22.32 123.916 23.072C125.132 22.944 126.476 22.352 127.82 22.352C127.948 22.352 128.092 22.352 128.22 22.368ZM134.851 28.528C135.027 27.312 135.235 26.016 135.443 24.72C135.459 24.576 135.475 24.464 135.475 24.368C135.475 24.144 135.395 24.064 135.171 24.064C135.075 24.064 134.963 24.08 134.819 24.096C133.875 24.304 132.531 24.16 132.323 25.152C132.019 26.592 131.491 29.6 131.011 29.6C130.787 29.6 130.739 29.392 130.739 29.264C130.739 29.104 130.787 28.944 130.803 28.8C130.963 27.648 131.171 26.528 131.379 25.408C131.395 25.296 131.395 25.2 131.395 25.12C131.395 24.8 131.251 24.72 130.771 24.72C130.659 24.72 130.531 24.752 130.403 24.752C130.243 24.752 130.051 24.704 130.051 24.448C130.051 24 130.435 24.064 130.755 24.032C131.587 23.936 131.667 23.872 131.811 23.056C132.019 21.872 132.147 18.976 132.995 18.976C133.187 18.976 133.395 19.328 133.395 19.472C133.363 20.736 132.739 21.968 132.739 23.248C132.739 23.488 132.851 23.6 133.123 23.6C133.763 23.6 135.731 23.44 135.779 22.864C136.083 21.456 136.339 20.048 136.595 18.672C136.659 18.304 136.627 17.936 137.331 17.936C137.683 17.936 137.875 18.112 137.875 18.512C137.875 18.592 137.875 18.672 137.859 18.752C137.731 19.968 137.475 21.2 137.251 22.432C137.235 22.464 137.203 22.496 137.203 22.528C137.203 22.672 137.267 22.832 137.267 22.976C137.267 23.76 136.723 24.432 136.659 25.232C136.579 26.16 136.339 27.072 136.179 28C136.035 28.752 135.955 29.488 135.779 30.24C135.763 30.368 135.603 30.48 135.507 30.624C135.363 30.512 135.155 30.416 135.107 30.272C134.995 29.728 134.931 29.184 134.851 28.528ZM146.783 22.688C146.703 24.56 145.727 26.88 143.647 28.96C143.023 29.584 141.983 30.288 140.943 30.288C139.087 30.288 138.351 28.784 138.351 27.728C138.351 27.088 138.623 26.448 138.735 25.776C138.847 25.136 138.799 24.416 139.039 23.792C139.327 22.848 139.711 21.92 140.271 21.056C140.719 20.352 141.439 19.712 142.095 19.088C142.639 18.576 143.599 18.192 144.271 18.192C145.839 18.192 146.783 19.68 146.783 22.688ZM145.487 21.68C145.327 20.976 145.215 19.152 144.239 19.152C142.735 19.152 141.439 21.344 140.767 22.416C140.735 22.464 140.719 22.528 140.719 22.592C140.719 23.12 141.471 23.248 141.471 23.68C141.471 23.808 141.375 23.984 141.375 24.128C141.375 24.416 141.647 24.576 142.111 24.576C142.159 24.576 142.223 24.56 142.287 24.56C142.367 24.56 142.399 24.592 142.399 24.656C142.399 25.28 140.847 25.152 140.719 25.76C140.575 26.48 140.319 27.344 140.319 28.064C140.319 28.64 140.543 29.104 141.039 29.104C141.231 29.088 141.487 29.056 141.711 28.896C144.383 27.056 145.183 24.336 145.487 21.68ZM151.173 19.12H150.997C150.213 19.12 149.525 19.328 148.837 19.728C148.773 19.76 148.709 19.776 148.645 19.776H148.341C148.421 19.6 148.437 19.36 148.565 19.264C149.429 18.704 150.453 18.512 151.461 18.512C153.237 18.512 154.469 19.36 154.469 20.704C154.469 21.616 153.877 22.72 153.333 23.568C152.677 24.56 151.509 26.144 150.341 26.144C150.165 26.144 150.005 26.08 149.893 26.08C149.653 26.08 149.573 26.24 149.525 26.528C149.365 27.584 149.157 28.672 149.013 29.728C148.933 30.24 148.565 30.448 148.229 30.688C148.229 30.704 148.213 30.704 148.181 30.704C147.797 30.704 147.589 30.32 147.589 29.76C147.589 28.672 148.197 26.96 148.229 26.768C148.645 24.72 148.981 22.608 149.429 20.56C149.525 20.112 149.829 19.968 150.149 19.968C150.341 19.968 150.501 20.224 150.501 20.496C150.501 21.2 150.277 21.936 150.181 22.64C150.165 22.704 150.149 22.768 150.149 22.816C150.149 22.944 150.181 23.072 150.181 23.184C150.357 23.12 150.549 23.072 150.725 22.944C151.045 22.72 151.365 22.224 151.733 22.224H151.909C151.685 23.136 150.309 23.84 150.309 24.864C150.309 25.12 150.373 25.264 150.597 25.264C150.981 25.264 151.781 24.432 152.117 24C152.821 23.12 153.781 21.968 153.781 20.848C153.781 19.536 153.093 19.28 151.173 19.12ZM154.655 29.12C154.655 29.552 154.175 30.192 153.791 30.192C153.423 30.192 152.879 29.712 152.879 29.312C152.879 28.8 153.407 28.352 153.967 28.352C154.287 28.352 154.655 28.704 154.655 29.12ZM161.957 32.128C162.693 33.216 162.917 33.744 162.917 34C162.917 34.144 162.853 34.192 162.741 34.192C162.565 34.192 162.309 34.048 162.309 34.048C160.165 32.016 159.301 29.104 158.389 26.432C158.277 26.128 158.037 25.712 157.877 25.712C157.445 25.744 157.557 26.208 157.509 26.512C157.285 27.728 157.141 30.016 156.181 30.016C155.781 30.016 155.621 29.856 155.621 29.36C155.621 28.48 156.133 26.88 156.181 26.656C156.565 24.48 156.997 22.336 157.429 20.16C157.477 19.744 157.461 19.104 157.605 18.928C157.861 18.752 158.181 18.464 158.437 18.464C158.741 18.464 158.869 18.784 158.869 19.072C158.869 19.152 158.869 19.232 158.853 19.312C158.661 20.288 158.485 21.296 158.261 22.272C158.261 22.336 158.229 22.4 158.229 22.464C158.229 22.656 158.293 22.896 158.325 23.088C158.501 22.992 158.709 22.896 158.821 22.752L161.637 18.896C161.877 18.528 162.245 18.608 162.581 18.608C162.549 18.8 162.565 19.04 162.453 19.2C161.381 20.704 160.325 22.24 159.205 23.712C158.981 24.016 158.853 24.288 158.853 24.56C158.853 24.768 158.917 24.96 159.029 25.2C159.509 26.208 159.845 27.264 160.277 28.304C160.789 29.568 161.381 30.864 161.957 32.128ZM165.165 27.728C165.293 27.712 165.453 27.712 165.613 27.712C166.333 27.712 167.261 27.856 167.757 28.192C167.901 28.336 167.981 28.576 168.125 28.768C167.933 28.784 167.757 28.848 167.597 28.848C167.549 28.848 167.501 28.848 167.453 28.832C167.085 28.688 166.605 28.64 166.109 28.64C164.461 28.656 163.325 28.896 162.397 29.728C162.221 29.888 162.045 30.032 161.821 30.032C161.533 30.032 161.309 29.776 161.309 29.504C161.309 29.376 161.341 29.248 161.405 29.152C163.421 26.528 165.165 23.696 166.941 20.896C166.973 20.848 166.989 20.8 166.989 20.768C166.973 20.304 165.261 20.144 164.653 20.032C164.253 19.952 163.885 19.728 163.533 19.536C163.437 19.488 163.437 19.264 163.389 19.12H163.613C164.269 19.12 164.333 19.504 165.117 19.504C166.013 19.504 167.693 19.328 168.061 19.024C168.237 18.88 168.253 18.768 168.557 18.768C168.813 18.768 169.181 18.736 169.181 19.072C169.181 19.2 169.149 19.344 169.101 19.424C167.645 22.048 165.773 24.624 164.125 27.216C164.061 27.296 164.013 27.424 164.013 27.52C164.013 27.696 164.237 27.744 164.429 27.776C164.653 27.776 164.925 27.744 165.165 27.728Z" fill="black"/>
<path d="M189.248 8.58488C189.248 8.58488 192.703 4.91678 196.404 6.26357C199.703 7.46439 200.815 11.4819 199.338 15.5415C195.96 24.8209 184.703 21.073 180.276 33.2336C184.703 21.073 173.669 16.7077 177.047 7.42828C178.525 3.36864 181.959 1.00627 185.258 2.20708C188.958 3.55375 189.248 8.58488 189.248 8.58488Z" fill="#F7BFCA"/>
<path d="M180.407 33.2822L180.145 33.1871C182.488 26.7517 180.494 22.5841 178.567 18.5536C176.898 15.062 175.321 11.7638 176.916 7.3814C178.473 3.1045 182.001 0.873089 185.306 2.07593C188.526 3.2477 189.224 7.17598 189.358 8.28418C190.172 7.52133 193.232 4.96078 196.452 6.13255C199.756 7.3354 201.025 11.313 199.469 15.5899C197.873 19.9723 194.545 21.4853 191.022 23.0869C186.955 24.9355 182.749 26.8468 180.407 33.2822ZM185.21 2.33959C182.057 1.19192 178.678 3.35219 177.177 7.47652C175.623 11.7471 177.175 14.9938 178.818 18.4308C180.536 22.0227 182.305 25.7221 181.083 31.0167C183.551 26.1758 187.284 24.4788 190.908 22.8313C194.376 21.2546 197.652 19.7656 199.207 15.4946C200.708 11.3707 199.509 7.54388 196.355 6.39608C192.785 5.0966 189.382 8.6461 189.348 8.68192L189.127 8.91636L189.108 8.59466C189.105 8.54552 188.78 3.63908 185.21 2.33959Z" fill="#F7BFCA"/>
</svg>
