<svg width="40" height="40" viewBox="0 0 40 40" fill="none" xmlns="http://www.w3.org/2000/svg">
<path d="M20 24.8C22.8995 24.8 25.25 22.3823 25.25 19.4C25.25 16.4177 22.8995 14 20 14C17.1005 14 14.75 16.4177 14.75 19.4C14.75 22.3823 17.1005 24.8 20 24.8ZM20 24.8C25.6304 24.9259 26.732 26.9348 26.9476 29.7854M20 24.8C14.3606 24.8 13.2645 26.8922 13.0514 29.7847M26.9476 29.7854C30.0054 27.6105 32 24.0382 32 20C32 13.3726 26.6274 8 20 8C13.3726 8 8 13.3726 8 20C8 24.0377 9.9942 27.6097 13.0514 29.7847M26.9476 29.7854C24.9869 31.18 22.5892 32 20 32C17.4103 32 15.0122 31.1797 13.0514 29.7847" stroke="black" stroke-width="2"/>
</svg>
