<svg width="40" height="40" viewBox="0 0 40 40" fill="none" xmlns="http://www.w3.org/2000/svg">
<path d="M10.539 30.3064L10.043 31.1747L10.043 31.1747L10.539 30.3064ZM8.65286 21.2783L9.63732 21.4539L9.63732 21.4539L8.65286 21.2783ZM8.23831 27.5935L7.29977 27.9387L8.23831 27.5935ZM31.3471 21.2783L32.3316 21.1027L32.3316 21.1027L31.3471 21.2783ZM31.7617 27.5935L32.7002 27.9387L31.7617 27.5935ZM29.461 30.3064L29.957 31.1747L29.957 31.1747L29.461 30.3064ZM26.895 9.44744L27.298 8.53226L27.298 8.53226L26.895 9.44744ZM30.3776 15.843L29.3931 16.0186L29.3931 16.0186L30.3776 15.843ZM29.1046 11.2814L28.2784 11.8448L28.2784 11.8448L29.1046 11.2814ZM13.105 9.44744L12.702 8.53226L12.702 8.53226L13.105 9.44744ZM9.62241 15.843L8.63795 15.6674L8.63795 15.6674L9.62241 15.843ZM10.8954 11.2814L11.7216 11.8448L11.7216 11.8448L10.8954 11.2814ZM25.4506 14.5854C25.7208 14.1038 25.5494 13.4943 25.0677 13.2241C24.586 12.9539 23.9765 13.1253 23.7063 13.607L25.4506 14.5854ZM16.2937 13.607C16.0235 13.1253 15.414 12.9539 14.9323 13.2241C14.4506 13.4943 14.2792 14.1038 14.5494 14.5854L16.2937 13.607ZM17.8671 10H22.1329V8H17.8671V10ZM29.3931 16.0186L30.3627 21.4539L32.3316 21.1027L31.362 15.6674L29.3931 16.0186ZM23.1025 30H16.8975V32H23.1025V30ZM9.63732 21.4539L10.6069 16.0186L8.63795 15.6674L7.6684 21.1027L9.63732 21.4539ZM16.8975 30C15.1651 30 13.9295 29.9991 12.9732 29.917C12.0256 29.8356 11.4599 29.6807 11.035 29.4381L10.043 31.1747C10.8324 31.6256 11.7312 31.8176 12.8019 31.9096C13.8639 32.0009 15.2004 32 16.8975 32V30ZM7.6684 21.1027C7.37357 22.7555 7.14013 24.059 7.04625 25.1111C6.95153 26.1726 6.98632 27.0865 7.29977 27.9387L9.17684 27.2483C9.01085 26.797 8.95491 26.2238 9.03834 25.2889C9.12259 24.3446 9.33615 23.1422 9.63732 21.4539L7.6684 21.1027ZM11.035 29.4381C10.1725 28.9454 9.5156 28.1694 9.17684 27.2483L7.29977 27.9387C7.80235 29.3052 8.77459 30.4502 10.043 31.1747L11.035 29.4381ZM30.3627 21.4539C30.6639 23.1422 30.8774 24.3446 30.9617 25.2889C31.0451 26.2238 30.9892 26.797 30.8232 27.2483L32.7002 27.9387C33.0137 27.0865 33.0485 26.1726 32.9538 25.1111C32.8599 24.059 32.6264 22.7555 32.3316 21.1027L30.3627 21.4539ZM23.1025 32C24.7996 32 26.1361 32.0009 27.1981 31.9096C28.2688 31.8176 29.1676 31.6256 29.957 31.1747L28.965 29.4381C28.5401 29.6807 27.9744 29.8356 27.0268 29.917C26.0705 29.9991 24.8349 30 23.1025 30V32ZM30.8232 27.2483C30.4844 28.1694 29.8275 28.9454 28.965 29.4381L29.957 31.1747C31.2254 30.4502 32.1976 29.3052 32.7002 27.9387L30.8232 27.2483ZM22.1329 10C23.3964 10 24.2896 10.0006 24.9953 10.0532C25.6886 10.1048 26.1291 10.2028 26.4919 10.3626L27.298 8.53226C26.6449 8.24462 25.9531 8.11894 25.1437 8.05869C24.3467 7.99936 23.3668 8 22.1329 8V10ZM31.362 15.6674C31.1477 14.4657 30.9778 13.5097 30.7799 12.7421C30.5788 11.9621 30.3324 11.3069 29.9308 10.718L28.2784 11.8448C28.4988 12.1679 28.6719 12.577 28.8433 13.2415C29.0178 13.9185 29.1735 14.7872 29.3931 16.0186L31.362 15.6674ZM26.4919 10.3626C27.2175 10.6821 27.8361 11.1962 28.2784 11.8448L29.9308 10.718C29.2765 9.75852 28.3639 9.00166 27.298 8.53226L26.4919 10.3626ZM17.8671 8C16.6332 8 15.6533 7.99936 14.8563 8.05869C14.0469 8.11894 13.3551 8.24462 12.702 8.53226L13.5081 10.3626C13.8709 10.2028 14.3114 10.1048 15.0047 10.0532C15.7104 10.0006 16.6036 10 17.8671 10V8ZM10.6069 16.0186C10.8265 14.7872 10.9822 13.9185 11.1567 13.2415C11.3281 12.577 11.5012 12.1679 11.7216 11.8448L10.0692 10.718C9.66761 11.3069 9.42124 11.9621 9.2201 12.7421C9.02217 13.5097 8.85231 14.4657 8.63795 15.6674L10.6069 16.0186ZM12.702 8.53226C11.6361 9.00166 10.7235 9.75852 10.0692 10.718L11.7216 11.8448C12.1639 11.1962 12.7825 10.6821 13.5081 10.3626L12.702 8.53226ZM23.7063 13.607C22.9853 14.8924 21.5976 15.7647 20 15.7647V17.7647C22.3425 17.7647 24.3864 16.4828 25.4506 14.5854L23.7063 13.607ZM20 15.7647C18.4024 15.7647 17.0147 14.8924 16.2937 13.607L14.5494 14.5854C15.6136 16.4828 17.6575 17.7647 20 17.7647V15.7647Z" fill="black"/>
</svg>
